<?xml version="1.0" encoding="utf-8"?>
<!-- Generator: Adobe Illustrator 25.4.1, SVG Export Plug-In . SVG Version: 6.00 Build 0)  -->
<svg version="1.1" id="Layer_1" xmlns="http://www.w3.org/2000/svg" xmlns:xlink="http://www.w3.org/1999/xlink" x="0px" y="0px"
	 viewBox="0 0 250.6 108.3" style="enable-background:new 0 0 250.6 108.3;" xml:space="preserve">
<style type="text/css">
	.st0{fill:#FFFFFF;}
	.st1{fill:#A2D8DB;}
	.st2{fill:#00B4D1;}
	.st3{fill:none;stroke:#FFFFFF;stroke-width:0.16;}
	.st4{fill:#FFE237;}
	.st5{fill:#F89E2F;}
	.st6{fill:#F6A0B5;}
	.st7{fill:#F2739D;}
</style>
<path class="st0" d="M5,98.6l-1.2-0.5l1.8-3.5l0.9,0.4L5,98.6z M7.5,98.6l-1.2-0.5L8,94.6l0.9,0.4L7.5,98.6z"/>
<path class="st0" d="M16.4,102.2h-4.1l-1.1,2.3H9.7l4.7-10.1l4.6,10.1h-1.6L16.4,102.2z M15.8,100.8l-1.4-3.2l-1.5,3.2H15.8z"/>
<path class="st0" d="M24.6,98.7v1.8c-0.2-0.3-0.5-0.6-0.9-0.8c-0.3-0.2-0.6-0.2-0.9-0.2c-0.5,0-1,0.2-1.3,0.6c-0.7,0.8-0.7,2,0,2.8
	c0.3,0.4,0.8,0.6,1.3,0.5c0.3,0,0.6-0.1,0.9-0.2c0.3-0.2,0.6-0.5,0.9-0.8v1.8c-0.5,0.3-1.1,0.4-1.7,0.4c-0.9,0-1.7-0.3-2.3-0.9
	c-0.6-0.6-1-1.4-0.9-2.2c0-0.9,0.3-1.7,1-2.3c0.6-0.6,1.5-1,2.3-0.9C23.5,98.3,24.1,98.5,24.6,98.7z"/>
<path class="st0" d="M27.3,98.5v3.4c0,1,0.4,1.5,1.2,1.5s1.2-0.5,1.2-1.5v-3.4H31v3.5c0,0.4-0.1,0.8-0.2,1.2
	c-0.1,0.3-0.3,0.6-0.6,0.8c-0.5,0.4-1.1,0.6-1.8,0.6c-0.6,0-1.3-0.2-1.8-0.6c-0.3-0.2-0.5-0.5-0.6-0.8c-0.1-0.4-0.2-0.8-0.2-1.2
	v-3.5H27.3z"/>
<path class="st0" d="M32.6,96c0-0.5,0.4-0.9,0.9-0.9c0.2,0,0.4,0.1,0.6,0.3c0.2,0.2,0.3,0.4,0.3,0.6c0,0.5-0.4,0.9-0.9,0.9
	c-0.2,0-0.4-0.1-0.6-0.3C32.7,96.5,32.6,96.2,32.6,96z M34.2,98.5v6h-1.4v-6H34.2z"/>
<path class="st0" d="M40.6,98.7v1.8c-0.2-0.3-0.5-0.6-0.8-0.8c-0.3-0.2-0.6-0.2-0.9-0.2c-0.5,0-1,0.2-1.3,0.6c-0.7,0.8-0.7,2,0,2.8
	c0.3,0.4,0.8,0.6,1.3,0.5c0.3,0,0.6-0.1,0.9-0.2c0.3-0.2,0.6-0.5,0.9-0.8v1.8c-0.5,0.3-1.1,0.4-1.7,0.4c-0.9,0-1.7-0.3-2.3-0.9
	c-1.2-1.2-1.3-3.2,0-4.5c0,0,0,0,0,0c0.6-0.6,1.5-1,2.3-0.9C39.5,98.3,40.1,98.5,40.6,98.7z"/>
<path class="st0" d="M43.3,98.5v3.4c0,1,0.4,1.5,1.2,1.5s1.2-0.5,1.2-1.5v-3.4h1.4v3.5c0,0.4-0.1,0.8-0.2,1.2
	c-0.1,0.3-0.3,0.6-0.6,0.8c-0.5,0.4-1.1,0.6-1.8,0.6c-0.7,0-1.3-0.2-1.8-0.6c-0.3-0.2-0.5-0.5-0.6-0.8c-0.1-0.4-0.2-0.8-0.1-1.2
	v-3.5H43.3z"/>
<path class="st0" d="M50.2,94.1v10.4h-1.4V94.1H50.2z"/>
<path class="st0" d="M53.4,99.8v4.7H52v-4.7h-0.6v-1.3H52v-2.2h1.4v2.2h1.1v1.3L53.4,99.8z"/>
<path class="st0" d="M56.8,98.5v3.4c0,1,0.4,1.5,1.2,1.5s1.2-0.5,1.2-1.5v-3.4h1.4v3.5c0,0.4,0,0.8-0.2,1.2
	c-0.1,0.3-0.3,0.6-0.6,0.8c-0.5,0.4-1.1,0.6-1.8,0.6c-0.6,0-1.3-0.2-1.8-0.6c-0.3-0.2-0.5-0.5-0.6-0.8c-0.1-0.4-0.2-0.8-0.2-1.2
	v-3.5H56.8z"/>
<path class="st0" d="M62.3,98.5h1.4V99c0.2-0.2,0.4-0.4,0.7-0.6c0.2-0.1,0.5-0.2,0.7-0.2c0.4,0,0.8,0.1,1.2,0.4l-0.6,1.3
	c-0.2-0.2-0.5-0.3-0.8-0.3c-0.8,0-1.1,0.6-1.1,1.7v3.1h-1.4V98.5z"/>
<path class="st0" d="M71.5,98.5h1.4v6h-1.4v-0.6c-0.5,0.5-1.1,0.8-1.8,0.8c-0.8,0-1.5-0.3-2.1-0.9c-0.5-0.6-0.8-1.5-0.8-2.3
	c0-0.8,0.3-1.6,0.8-2.2c0.5-0.6,1.2-0.9,2-0.9c0.7,0,1.4,0.3,1.9,0.9L71.5,98.5z M68.2,101.5c0,0.5,0.1,1,0.5,1.4
	c0.3,0.4,0.7,0.6,1.2,0.6c0.5,0,0.9-0.2,1.2-0.5c0.6-0.8,0.6-2,0-2.8c-0.3-0.4-0.8-0.6-1.2-0.5c-0.5,0-0.9,0.2-1.2,0.6
	C68.3,100.5,68.2,101,68.2,101.5L68.2,101.5z"/>
<path class="st0" d="M80.4,103.4l-2.7-4.9h1.6l1.8,3.4l1.7-3.4h1.6l-4.8,9.3h-1.6L80.4,103.4z"/>
<path class="st0" d="M91,100.6v3.9h-1.4V95h1.6c0.6,0,1.2,0,1.8,0.2c0.4,0.1,0.8,0.3,1.1,0.6c0.5,0.5,0.8,1.2,0.8,2
	c0,0.8-0.3,1.5-0.9,2.1c-0.7,0.5-1.5,0.8-2.4,0.8L91,100.6z M91,99.3h0.5c1.3,0,2-0.5,2-1.5c0-1-0.7-1.5-2-1.5H91V99.3z"/>
<path class="st0" d="M101.6,101.8h-4.3c0,0.4,0.2,0.9,0.5,1.2c0.3,0.3,0.7,0.4,1.1,0.4c0.3,0,0.6-0.1,0.8-0.2
	c0.3-0.3,0.6-0.6,0.8-0.9l1.2,0.7c-0.2,0.3-0.4,0.6-0.6,0.8c-0.2,0.2-0.4,0.4-0.7,0.5c-0.2,0.1-0.5,0.2-0.7,0.3
	c-0.3,0.1-0.6,0.1-0.9,0.1c-0.8,0-1.6-0.3-2.2-0.9c-0.6-0.6-0.9-1.5-0.8-2.3c0-0.8,0.2-1.7,0.8-2.3c0.5-0.6,1.3-0.9,2.1-0.9
	c0.8,0,1.6,0.3,2.1,0.8c0.5,0.6,0.8,1.5,0.8,2.3L101.6,101.8z M100.2,100.7c-0.1-0.7-0.7-1.2-1.4-1.1c-0.2,0-0.3,0-0.5,0.1
	c-0.1,0.1-0.3,0.1-0.4,0.2c-0.3,0.2-0.4,0.5-0.5,0.8H100.2z"/>
<path class="st0" d="M106.6,99.5l-1.2,0.6c-0.2-0.4-0.4-0.6-0.7-0.6c-0.1,0-0.2,0-0.3,0.1c-0.1,0.1-0.1,0.2-0.1,0.3
	c0,0.2,0.3,0.5,0.8,0.7c0.5,0.2,1,0.5,1.5,0.9c0.3,0.3,0.4,0.7,0.4,1.1c0,0.6-0.2,1.1-0.7,1.4c-1,0.8-2.4,0.7-3.2-0.2
	c-0.2-0.2-0.3-0.4-0.4-0.7l1.2-0.5c0.1,0.2,0.2,0.4,0.4,0.5c0.2,0.2,0.4,0.2,0.6,0.2c0.5,0,0.7-0.2,0.7-0.6c0-0.2-0.2-0.5-0.6-0.7
	l-0.4-0.2l-0.4-0.2c-0.3-0.1-0.6-0.3-0.8-0.6c-0.2-0.3-0.3-0.6-0.3-1c0-0.5,0.2-1,0.5-1.3c0.4-0.3,0.8-0.5,1.3-0.5
	C105.6,98.3,106.3,98.8,106.6,99.5z"/>
<path class="st0" d="M112.9,98.7v1.8c-0.2-0.3-0.5-0.6-0.8-0.8c-0.3-0.2-0.6-0.2-0.9-0.2c-0.5,0-1,0.2-1.3,0.6c-0.7,0.8-0.7,2,0,2.8
	c0.3,0.4,0.8,0.6,1.3,0.5c0.3,0,0.6-0.1,0.9-0.2c0.3-0.2,0.6-0.5,0.9-0.8v1.8c-0.5,0.3-1.1,0.4-1.7,0.4c-0.9,0-1.7-0.3-2.3-0.9
	c-1.2-1.2-1.3-3.2,0-4.5c0,0,0,0,0,0c0.6-0.6,1.5-1,2.3-0.9C111.8,98.3,112.4,98.5,112.9,98.7z"/>
<path class="st0" d="M118.7,98.5h1.4v6h-1.4v-0.6c-1,1.1-2.7,1.1-3.8,0c0,0-0.1-0.1-0.1-0.1c-0.5-0.6-0.8-1.5-0.8-2.3
	c0-0.8,0.3-1.6,0.8-2.2c0.5-0.6,1.2-0.9,2-0.9c0.7,0,1.4,0.3,1.9,0.9L118.7,98.5z M115.4,101.5c0,0.5,0.1,1,0.5,1.4
	c0.3,0.4,0.7,0.6,1.2,0.6c0.5,0,0.9-0.2,1.2-0.5c0.6-0.8,0.6-2,0-2.8c-0.3-0.4-0.8-0.6-1.2-0.5c-0.5,0-0.9,0.2-1.2,0.6
	C115.5,100.5,115.4,101,115.4,101.5L115.4,101.5z"/>
<path class="st0" d="M130.4,98.7v1.8c-0.2-0.3-0.5-0.6-0.9-0.8c-0.3-0.2-0.6-0.2-0.9-0.2c-0.5,0-1,0.2-1.3,0.6c-0.7,0.8-0.7,2,0,2.8
	c0.3,0.4,0.8,0.6,1.3,0.5c0.3,0,0.6-0.1,0.9-0.2c0.3-0.2,0.6-0.5,0.9-0.8v1.8c-0.5,0.3-1.1,0.4-1.7,0.4c-0.9,0-1.7-0.3-2.3-0.9
	c-0.6-0.6-1-1.4-0.9-2.2c0-0.9,0.3-1.7,0.9-2.3c0.6-0.6,1.5-1,2.3-0.9C129.3,98.3,129.9,98.5,130.4,98.7z"/>
<path class="st0" d="M131.4,101.4c0-0.8,0.3-1.6,0.9-2.2c1.3-1.2,3.3-1.2,4.6,0c1.2,1.3,1.2,3.3,0,4.5c-0.6,0.6-1.4,0.9-2.3,0.9
	c-0.9,0-1.7-0.3-2.3-0.9C131.8,103.1,131.4,102.3,131.4,101.4z M132.9,101.4c0,0.5,0.1,1,0.5,1.4c0.7,0.7,1.9,0.7,2.6,0
	c0.3-0.4,0.5-0.9,0.5-1.4c0-0.5-0.2-1-0.5-1.4c-0.7-0.7-1.9-0.7-2.6,0C133,100.5,132.8,101,132.9,101.4L132.9,101.4z"/>
<path class="st0" d="M139.3,98.5h1.4V99c0.4-0.5,1-0.7,1.6-0.7c0.6,0,1.2,0.2,1.6,0.7c0.4,0.5,0.6,1.2,0.5,1.8v3.7h-1.4v-3.4
	c0-0.4-0.1-0.9-0.2-1.2c-0.2-0.3-0.5-0.4-0.9-0.3c-0.4,0-0.8,0.1-1,0.4c-0.2,0.5-0.3,1-0.3,1.6v2.9h-1.4L139.3,98.5z"/>
<path class="st0" d="M153.6,100.4l3,4.1h-1.8l-2.7-3.9h-0.3v3.9h-1.4V95h1.7c1-0.1,1.9,0.2,2.7,0.7c0.6,0.5,1,1.3,0.9,2.1
	c0,0.6-0.2,1.2-0.6,1.7C154.8,100,154.3,100.3,153.6,100.4z M151.9,99.3h0.5c1.3,0,2-0.5,2-1.6c0-1-0.7-1.5-2-1.5h-0.5L151.9,99.3z"
	/>
<path class="st0" d="M163.2,101.8h-4.3c0,0.4,0.2,0.9,0.5,1.2c0.3,0.3,0.7,0.4,1.1,0.4c0.3,0,0.6-0.1,0.9-0.2
	c0.3-0.3,0.6-0.6,0.8-0.9l1.2,0.7c-0.2,0.3-0.4,0.6-0.6,0.8c-0.2,0.2-0.4,0.4-0.6,0.5c-0.2,0.1-0.5,0.2-0.8,0.3
	c-0.3,0.1-0.6,0.1-0.9,0.1c-0.8,0-1.6-0.3-2.2-0.9c-0.6-0.6-0.9-1.5-0.8-2.3c0-0.8,0.2-1.7,0.8-2.3c1.2-1.1,3-1.1,4.2,0
	c0.5,0.6,0.8,1.5,0.8,2.3L163.2,101.8z M161.8,100.7c-0.1-0.7-0.7-1.2-1.4-1.1c-0.2,0-0.3,0-0.5,0.1c-0.1,0.1-0.3,0.1-0.4,0.2
	c-0.3,0.2-0.4,0.5-0.5,0.8H161.8z"/>
<path class="st0" d="M168.2,99.5l-1.1,0.6c-0.2-0.4-0.4-0.6-0.7-0.6c-0.1,0-0.2,0-0.3,0.1c-0.1,0.1-0.1,0.2-0.1,0.3
	c0,0.2,0.3,0.5,0.8,0.7c0.5,0.2,1.1,0.5,1.5,0.9c0.3,0.3,0.4,0.7,0.4,1.1c0,0.6-0.2,1.1-0.6,1.4c-1,0.8-2.4,0.7-3.2-0.2
	c-0.2-0.2-0.3-0.4-0.4-0.7l1.2-0.5c0.1,0.2,0.2,0.4,0.4,0.5c0.2,0.2,0.4,0.2,0.6,0.2c0.5,0,0.7-0.2,0.7-0.6c0-0.2-0.2-0.5-0.5-0.7
	l-0.4-0.2l-0.4-0.2c-0.3-0.1-0.6-0.3-0.9-0.6c-0.2-0.3-0.3-0.6-0.3-1c0-0.5,0.2-1,0.5-1.3c0.4-0.3,0.8-0.5,1.3-0.5
	C167.3,98.3,168,98.8,168.2,99.5z"/>
<path class="st0" d="M171.3,107.8h-1.4v-9.3h1.4v0.7c0.5-0.5,1.2-0.8,1.9-0.8c0.8,0,1.5,0.3,2,0.9c1.1,1.3,1.1,3.2,0,4.5
	c-0.5,0.6-1.2,0.9-2,0.9c-0.7,0-1.4-0.3-1.9-0.8L171.3,107.8z M174.5,101.5c0-0.5-0.1-1-0.5-1.4c-0.3-0.4-0.7-0.6-1.2-0.6
	c-0.5,0-0.9,0.2-1.2,0.5c-0.6,0.8-0.6,2,0,2.8c0.3,0.4,0.8,0.6,1.2,0.5c0.5,0,0.9-0.2,1.2-0.5C174.4,102.5,174.6,102,174.5,101.5
	L174.5,101.5z"/>
<path class="st0" d="M177.2,101.4c0-0.8,0.3-1.6,0.9-2.2c1.3-1.2,3.3-1.2,4.6,0c1.2,1.3,1.2,3.3,0,4.5c-0.6,0.6-1.4,0.9-2.3,0.9
	c-0.9,0-1.7-0.3-2.3-0.9C177.5,103.1,177.1,102.3,177.2,101.4z M178.6,101.4c0,0.5,0.1,1,0.5,1.4c0.7,0.7,1.9,0.7,2.6,0
	c0.3-0.4,0.5-0.9,0.5-1.4c0-0.5-0.2-1-0.5-1.4c-0.7-0.7-1.9-0.7-2.6,0C178.7,100.5,178.6,101,178.6,101.4L178.6,101.4z"/>
<path class="st0" d="M185,98.5h1.4V99c0.4-0.5,1-0.7,1.6-0.7c0.6,0,1.2,0.2,1.6,0.7c0.4,0.5,0.6,1.2,0.5,1.8v3.7h-1.4v-3.4
	c0-0.4,0-0.9-0.2-1.2c-0.2-0.3-0.5-0.4-0.9-0.3c-0.4,0-0.8,0.1-1,0.4c-0.2,0.5-0.3,1-0.3,1.6v2.9H185V98.5z"/>
<path class="st0" d="M195.4,99.5l-1.1,0.6c-0.2-0.4-0.4-0.6-0.7-0.6c-0.1,0-0.2,0-0.3,0.1c-0.1,0.1-0.1,0.2-0.1,0.3
	c0,0.2,0.3,0.5,0.8,0.7c0.5,0.2,1.1,0.5,1.5,0.9c0.3,0.3,0.4,0.7,0.4,1.1c0,0.6-0.2,1.1-0.6,1.4c-1,0.8-2.4,0.7-3.2-0.2
	c-0.2-0.2-0.3-0.4-0.4-0.7l1.2-0.5c0.1,0.2,0.2,0.4,0.4,0.5c0.2,0.2,0.4,0.2,0.6,0.2c0.5,0,0.7-0.2,0.7-0.6c0-0.2-0.2-0.5-0.5-0.7
	l-0.4-0.2l-0.4-0.2c-0.3-0.1-0.6-0.3-0.9-0.6c-0.2-0.3-0.3-0.6-0.3-1c0-0.5,0.2-1,0.5-1.3c0.4-0.3,0.8-0.5,1.3-0.5
	C194.5,98.3,195.2,98.8,195.4,99.5z"/>
<path class="st0" d="M201.5,98.5h1.4v6h-1.4v-0.6c-1,1.1-2.7,1.1-3.8,0c0,0-0.1-0.1-0.1-0.1c-0.5-0.6-0.8-1.5-0.8-2.3
	c0-0.8,0.3-1.6,0.8-2.2c0.5-0.6,1.2-0.9,2-0.9c0.7,0,1.4,0.3,1.9,0.9L201.5,98.5z M198.2,101.5c0,0.5,0.1,1,0.5,1.4
	c0.3,0.4,0.7,0.6,1.2,0.6c0.5,0,0.9-0.2,1.2-0.5c0.6-0.8,0.6-2,0-2.8c-0.6-0.7-1.6-0.7-2.3-0.1c0,0-0.1,0.1-0.1,0.1
	C198.4,100.5,198.2,101,198.2,101.5L198.2,101.5z"/>
<path class="st0" d="M206.1,94.1v5.1c0.5-0.5,1.2-0.9,1.9-0.9c0.8,0,1.5,0.3,2,0.9c0.5,0.6,0.8,1.4,0.8,2.2c0,0.8-0.3,1.7-0.8,2.3
	c-0.5,0.6-1.2,0.9-2,0.9c-0.7,0-1.4-0.3-1.9-0.8v0.6h-1.4V94.1H206.1z M209.4,101.5c0-0.5-0.1-1-0.5-1.4c-0.3-0.4-0.7-0.6-1.2-0.6
	c-0.5,0-0.9,0.2-1.2,0.5c-0.3,0.4-0.5,0.9-0.5,1.4c0,0.5,0.1,1,0.5,1.4c0.6,0.7,1.6,0.7,2.3,0.1c0,0,0.1-0.1,0.1-0.1
	C209.2,102.5,209.4,102,209.4,101.5z"/>
<path class="st0" d="M212,96c0-0.2,0.1-0.5,0.3-0.6c0.2-0.2,0.4-0.3,0.6-0.3c0.2,0,0.5,0.1,0.6,0.3c0.2,0.2,0.3,0.4,0.3,0.6
	c0,0.5-0.4,0.9-0.9,0.9c-0.2,0-0.4-0.1-0.6-0.3C212.1,96.5,212,96.2,212,96z M213.6,98.5v6h-1.4v-6H213.6z"/>
<path class="st0" d="M216.8,94.1v10.4h-1.4V94.1H216.8z"/>
<path class="st0" d="M218.3,96c0-0.5,0.4-0.9,0.9-0.9c0.2,0,0.5,0.1,0.6,0.3c0.2,0.2,0.3,0.4,0.3,0.6c0,0.5-0.4,0.9-0.9,0.9
	c-0.2,0-0.4-0.1-0.6-0.3C218.4,96.5,218.3,96.2,218.3,96z M219.9,98.5v6h-1.4v-6H219.9z"/>
<path class="st0" d="M226.1,94.1h1.4v10.4h-1.4v-0.6c-0.5,0.5-1.2,0.8-1.9,0.8c-0.8,0-1.5-0.3-2.1-0.9c-0.5-0.6-0.8-1.5-0.8-2.3
	c0-0.8,0.3-1.6,0.8-2.2c0.9-1.1,2.6-1.2,3.7-0.3c0.1,0.1,0.2,0.2,0.3,0.3V94.1z M222.8,101.5c0,0.5,0.1,1,0.5,1.4
	c0.3,0.4,0.7,0.6,1.2,0.6c0.5,0,0.9-0.2,1.2-0.5c0.6-0.8,0.6-2,0-2.8c-0.3-0.4-0.8-0.6-1.2-0.5c-0.5,0-0.9,0.2-1.2,0.6
	C223,100.5,222.8,101,222.8,101.5L222.8,101.5z"/>
<path class="st0" d="M233.7,98.5h1.4v6h-1.4v-0.6c-1,1.1-2.7,1.1-3.8,0c0,0-0.1-0.1-0.1-0.1c-0.5-0.6-0.8-1.5-0.8-2.3
	c0-0.8,0.3-1.6,0.8-2.2c0.5-0.6,1.2-0.9,2-0.9c0.7,0,1.4,0.3,1.9,0.9L233.7,98.5z M230.4,101.5c0,0.5,0.1,1,0.5,1.4
	c0.3,0.4,0.7,0.6,1.2,0.6c0.5,0,0.9-0.2,1.2-0.5c0.6-0.8,0.6-2,0-2.8c-0.6-0.7-1.6-0.7-2.3-0.1c0,0-0.1,0.1-0.1,0.1
	C230.5,100.5,230.4,101,230.4,101.5L230.4,101.5z"/>
<path class="st0" d="M241.2,94.1h1.4v10.4h-1.4v-0.6c-0.5,0.5-1.2,0.8-1.9,0.8c-0.8,0-1.5-0.3-2-0.9c-0.5-0.6-0.8-1.5-0.8-2.3
	c0-0.8,0.3-1.6,0.8-2.2c0.9-1.1,2.6-1.2,3.7-0.3c0.1,0.1,0.2,0.2,0.3,0.3L241.2,94.1z M237.9,101.5c0,0.5,0.1,1,0.5,1.4
	c0.3,0.4,0.7,0.6,1.2,0.6c0.5,0,0.9-0.2,1.2-0.5c0.6-0.8,0.6-2,0-2.8c-0.3-0.4-0.8-0.6-1.2-0.5c-0.5,0-0.9,0.2-1.2,0.6
	C238.1,100.5,238,101,237.9,101.5L237.9,101.5z"/>
<path class="st0" d="M245.7,94.6l1.2,0.5l-1.8,3.5l-0.9-0.4L245.7,94.6z M248.2,94.6l1.2,0.5l-1.8,3.5l-0.9-0.4L248.2,94.6z"/>
<path class="st0" d="M104.5,58.4l-0.9,2.2h-1l3.6-8.2l3.5,8.2h-1l-0.9-2.2H104.5z M106.2,54.4l-1.3,3.1h2.7L106.2,54.4z"/>
<path class="st0" d="M111.5,57.5c-0.1,0.6,0,1.2,0.3,1.8c0.4,0.5,1,0.7,1.6,0.7c0.6,0,1.1-0.3,1.5-0.7c0.3-0.5,0.5-1.2,0.4-1.8v-4.7
	h0.9v4.9c0.1,0.8-0.2,1.6-0.7,2.2c-0.6,0.6-1.3,0.9-2.1,0.9c-0.7,0-1.5-0.3-2-0.8c-0.6-0.6-0.9-1.4-0.8-2.3v-4.9h0.9L111.5,57.5z"/>
<polygon class="st0" points="119.8,60.7 118.9,60.7 118.9,53.6 117.1,53.6 117.1,52.8 121.7,52.8 121.7,53.6 119.8,53.6 "/>
<path class="st0" d="M130.4,56.8c0,2.3-1.8,4.1-4.1,4.1c-2.3,0-4.1-1.8-4.1-4.1c0-2.3,1.8-4.1,4.1-4.1c0,0,0,0,0,0
	C128.6,52.7,130.4,54.5,130.4,56.8C130.4,56.7,130.4,56.7,130.4,56.8 M123.1,56.8c0,1.8,1.5,3.2,3.2,3.2c1.8,0,3.2-1.5,3.2-3.2
	c0-1.8-1.5-3.2-3.2-3.2C124.5,53.5,123.1,55,123.1,56.8"/>
<path class="st0" d="M132.5,60.7h-0.9v-7.8h1.1c1.5,0,2.9,0.4,2.9,2.2c0.1,1.1-0.7,2.1-1.8,2.2c-0.1,0-0.1,0-0.2,0l2.5,3.5H135
	l-2.4-3.4h-0.2L132.5,60.7z M132.5,56.4h0.3c1,0,2-0.2,2-1.4s-0.9-1.4-2-1.4h-0.3L132.5,56.4z"/>
<rect x="137.3" y="52.8" class="st0" width="0.9" height="7.8"/>
<path class="st0" d="M139.7,52.8h1.5c1.1-0.1,2.2,0.3,3.1,1c1.6,1.5,1.7,4,0.3,5.7c-0.1,0.1-0.2,0.2-0.3,0.3c-0.9,0.7-2,1.1-3.1,1
	h-1.5L139.7,52.8z M141.2,59.8c0.9,0.1,1.8-0.2,2.5-0.8c0.6-0.6,1-1.4,1-2.3c0-0.9-0.3-1.7-1-2.3c-0.7-0.6-1.6-0.8-2.4-0.8h-0.6v6.2
	H141.2z"/>
<path class="st0" d="M148,58.4l-1,2.2h-1l3.6-8.2l3.5,8.2h-1l-0.9-2.2H148z M149.7,54.4l-1.3,3.1h2.6L149.7,54.4z"/>
<path class="st0" d="M154,52.8h1.5c1.1-0.1,2.2,0.3,3.1,1c1.6,1.5,1.7,4,0.3,5.7c-0.1,0.1-0.2,0.2-0.3,0.3c-0.9,0.7-2,1.1-3.1,1H154
	V52.8z M155.5,59.8c0.9,0.1,1.8-0.2,2.5-0.8c0.6-0.6,1-1.4,1-2.3c0-0.9-0.3-1.7-1-2.3c-0.7-0.6-1.6-0.8-2.4-0.8h-0.6v6.2H155.5z"/>
<polygon class="st0" points="164.4,52.5 170.5,58.9 170.5,52.8 171.3,52.8 171.3,61 165.2,54.6 165.2,60.7 164.4,60.7 "/>
<path class="st0" d="M174.1,58.4l-1,2.2h-1l3.6-8.2l3.5,8.2h-1l-0.9-2.2H174.1z M175.8,54.4l-1.3,3.1h2.6L175.8,54.4z"/>
<path class="st0" d="M186.2,54.5c-0.6-0.6-1.5-1-2.4-1c-1.8,0.1-3.2,1.6-3.1,3.4c0.1,1.7,1.4,3,3.1,3.1c0.9,0,1.7-0.4,2.4-1v1
	c-0.7,0.5-1.5,0.8-2.4,0.8c-2.2,0.1-4.1-1.6-4.3-3.9c-0.1-2.2,1.6-4.1,3.9-4.3c0.1,0,0.3,0,0.4,0c0.8,0,1.7,0.3,2.4,0.8L186.2,54.5z
	"/>
<rect x="187.7" y="52.8" class="st0" width="0.9" height="7.8"/>
<path class="st0" d="M198,56.8c0,2.3-1.8,4.1-4.1,4.1c-2.3,0-4.1-1.8-4.1-4.1c0-2.3,1.8-4.1,4.1-4.1c0,0,0,0,0,0
	C196.2,52.7,198,54.5,198,56.8C198,56.7,198,56.7,198,56.8 M190.7,56.8c0,1.8,1.5,3.2,3.2,3.2c1.8,0,3.2-1.5,3.2-3.2
	c0-1.8-1.5-3.2-3.2-3.2C192.1,53.5,190.7,55,190.7,56.8"/>
<polygon class="st0" points="199.2,52.5 205.3,58.9 205.3,52.8 206.2,52.8 206.2,61 200.1,54.6 200.1,60.7 199.2,60.7 "/>
<path class="st0" d="M209,58.4l-0.9,2.2h-1l3.6-8.2l3.5,8.2h-1l-0.9-2.2H209z M210.7,54.4l-1.3,3.1h2.6L210.7,54.4z"/>
<polygon class="st0" points="216,59.8 218.1,59.8 218.1,60.7 215.1,60.7 215.1,52.8 216,52.8 "/>
<path class="st0" d="M97.9,65.3h1.5c1.1-0.1,2.2,0.3,3.1,0.9c0.9,0.8,1.3,1.9,1.3,3c0,1.1-0.4,2.2-1.3,2.9c-0.9,0.7-2,1.1-3.1,1
	h-1.5V65.3z M99.4,72.3c0.9,0.1,1.8-0.2,2.5-0.8c0.6-0.6,1-1.4,1-2.3c0-0.9-0.3-1.7-1-2.3c-0.7-0.6-1.6-0.8-2.4-0.8h-0.6v6.2H99.4z"
	/>
<polygon class="st0" points="104.9,65.3 109,65.3 109,66.1 105.8,66.1 105.8,68.4 108.9,68.4 108.9,69.2 105.8,69.2 105.8,72.3 
	109,72.3 109,73.1 104.9,73.1 "/>
<path class="st0" d="M114.8,70.9l-1,2.2h-1l3.6-8.2l3.5,8.2h-1l-0.9-2.2H114.8z M116.5,66.9l-1.3,3.2h2.7L116.5,66.9z"/>
<path class="st0" d="M126.9,67c-0.6-0.6-1.5-1-2.4-1c-1.8,0.1-3.2,1.6-3.1,3.4c0.1,1.7,1.4,3,3.1,3.1c0.9,0,1.7-0.4,2.4-1v1.1
	c-0.7,0.5-1.5,0.8-2.3,0.8c-2.2,0-4.1-1.8-4.1-4.1c0-2.2,1.8-4.1,4.1-4.1c0.8,0,1.7,0.3,2.3,0.8L126.9,67z"/>
<path class="st0" d="M129.2,70c-0.1,0.6,0.1,1.2,0.4,1.8c0.4,0.5,1,0.7,1.6,0.7c0.6,0,1.1-0.3,1.5-0.7c0.3-0.5,0.5-1.2,0.4-1.8v-4.7
	h0.9v4.9c0.1,0.8-0.2,1.6-0.7,2.2c-0.5,0.6-1.3,0.9-2.1,0.9c-0.7,0-1.5-0.3-2-0.8c-0.6-0.6-0.9-1.4-0.8-2.3v-4.9h0.9L129.2,70z"/>
<rect x="135.5" y="65.3" class="st0" width="0.9" height="7.8"/>
<path class="st0" d="M144,67c-0.6-0.6-1.5-1-2.4-1c-1.8,0.1-3.2,1.6-3.1,3.4c0.1,1.7,1.4,3,3.1,3.1c0.9,0,1.7-0.4,2.4-1v1.1
	c-0.7,0.5-1.5,0.8-2.3,0.8c-2.2,0-4.1-1.8-4.1-4.1c0-2.2,1.8-4.1,4.1-4.1c0.8,0,1.7,0.3,2.3,0.8L144,67z"/>
<path class="st0" d="M146.3,70c-0.1,0.6,0,1.2,0.3,1.8c0.4,0.5,1,0.8,1.6,0.7c0.6,0,1.1-0.3,1.5-0.7c0.3-0.5,0.5-1.2,0.4-1.8v-4.7
	h0.8v4.9c0.1,0.8-0.2,1.6-0.7,2.2c-0.5,0.6-1.3,0.9-2.1,0.9c-0.7,0-1.5-0.3-2-0.8c-0.6-0.6-0.9-1.4-0.8-2.3v-4.9h0.9L146.3,70z"/>
<polygon class="st0" points="153.5,72.3 155.6,72.3 155.6,73.1 152.6,73.1 152.6,65.3 153.5,65.3 "/>
<polygon class="st0" points="157.7,73.1 156.9,73.1 156.9,66.1 155,66.1 155,65.3 159.7,65.3 159.7,66.1 157.7,66.1 "/>
<path class="st0" d="M161.4,70c-0.1,0.6,0,1.2,0.3,1.8c0.4,0.5,1,0.8,1.6,0.7c0.6,0,1.1-0.3,1.5-0.7c0.3-0.5,0.5-1.2,0.4-1.8v-4.7
	h0.9v4.9c0.1,0.8-0.2,1.6-0.7,2.2c-0.5,0.6-1.3,0.9-2.1,0.9c-0.7,0-1.5-0.3-2-0.8c-0.6-0.6-0.9-1.4-0.8-2.3v-4.9h0.9L161.4,70z"/>
<path class="st0" d="M168.6,73.1h-0.9v-7.8h1.1c1.5,0,2.9,0.4,2.9,2.2c0.1,1.1-0.7,2.1-1.8,2.2c-0.1,0-0.1,0-0.2,0l2.5,3.5h-1.1
	l-2.4-3.4h-0.2L168.6,73.1z M168.6,68.9h0.3c1,0,2-0.2,2-1.4s-0.9-1.4-2-1.4h-0.3L168.6,68.9z"/>
<path class="st0" d="M174.5,70.9l-1,2.2h-1l3.6-8.2l3.5,8.2h-1l-0.9-2.2H174.5z M176.2,66.9l-1.3,3.1h2.6L176.2,66.9z"/>
<polygon class="st0" points="183.1,65.3 184.1,65.3 186.1,68.8 188.1,65.3 189.1,65.3 186.5,69.8 186.5,73.1 185.6,73.1 185.6,69.8 
	"/>
<path class="st0" d="M194,73.1h-0.9v-7.8h1.3c0.7-0.1,1.4,0.1,1.9,0.4c0.6,0.4,0.9,1.1,0.9,1.8c0,0.6-0.3,1.3-0.8,1.7
	c-0.5,0.4-1.2,0.6-1.9,0.5H194V73.1z M194,68.9h0.6c1,0,1.8-0.3,1.8-1.4c0-1.3-1-1.4-2.1-1.4H194V68.9z"/>
<polygon class="st0" points="198.4,65.3 202.5,65.3 202.5,66.1 199.3,66.1 199.3,68.4 202.4,68.4 202.4,69.2 199.3,69.2 199.3,72.3 
	202.5,72.3 202.5,73.1 198.4,73.1 "/>
<path class="st0" d="M207.5,66.8c-0.2-0.5-0.8-0.9-1.4-0.8c-0.7,0-1.3,0.5-1.3,1.2c0,0,0,0,0,0c0,0.7,0.7,1,1.2,1.2l0.5,0.2
	c1,0.4,1.9,0.9,1.9,2.2c0,1.4-1.2,2.4-2.6,2.4c-1.1,0-2.1-0.9-2.3-2l0.9-0.2c0.1,0.8,0.8,1.4,1.6,1.5c0.9,0,1.6-0.7,1.6-1.5
	c0,0,0,0,0,0c0-0.9-0.7-1.2-1.4-1.6l-0.5-0.2c-0.9-0.4-1.7-0.9-1.7-2c0-1.1,1-2,2.1-2c0,0,0.1,0,0.1,0c0.8,0,1.6,0.5,2,1.2
	L207.5,66.8z"/>
<path class="st0" d="M215.7,67c-0.6-0.6-1.5-1-2.4-1c-1.8,0.1-3.2,1.6-3.1,3.4c0.1,1.7,1.4,3,3.1,3.1c0.9,0,1.7-0.4,2.4-1v1.1
	c-1.8,1.3-4.3,0.9-5.7-0.9c-0.5-0.7-0.8-1.5-0.8-2.4c0-2.3,1.8-4.1,4.1-4.1c0.8,0,1.7,0.3,2.3,0.8L215.7,67z"/>
<path class="st0" d="M218.4,70.9l-0.9,2.2h-1l3.6-8.2l3.5,8.2h-1l-0.9-2.2H218.4z M220.1,66.9l-1.4,3.1h2.6L220.1,66.9z"/>
<path class="st0" d="M102,34.5L98.7,42h-4l14.1-30.9L123,42h-4l-3.4-7.4L102,34.5z M108.8,19.2l-5.3,12h10.5L108.8,19.2z"/>
<path class="st0" d="M128.6,12.3v17.5c0,4.8,1.4,9.3,7.1,9.3s7.2-4.5,7.2-9.3V12.3h3.7v18.8c0,6.5-4,11.5-10.8,11.5
	s-10.9-5-10.9-11.5V12.3H128.6z"/>
<polygon class="st0" points="151.4,10.9 173.6,34.2 173.6,12.3 177.3,12.3 177.3,43.2 155.1,19.9 155.1,42 151.4,42 "/>
<path class="st0" d="M186.8,34.5l-3.4,7.5h-4l14.2-30.9L207.7,42h-4l-3.4-7.4L186.8,34.5z M193.6,19.2l-5.3,12h10.5L193.6,19.2z"/>
<path class="st0" d="M213.9,42h-3.7V12.3h4.2c9.1,0,11.9,3.1,11.9,8.6c0,6.2-4.8,8.6-10.4,8.6h-2.1V42z M213.9,26.3h1.2
	c3.8,0,7.9-0.7,7.9-5.4s-4.4-5.2-8.1-5.2h-1L213.9,26.3z"/>
<path class="st1" d="M11.4,36.7c0,0-4.4,14.1,11.9,16.1s23,4.6,25.8,8.2s4.4,6.1,3.7,8.2c-1.7,5.5-12.2,12.1-21.3,8.6
	S6.1,68,5.7,54.4S11.4,36.7,11.4,36.7z"/>
<path class="st2" d="M9.6,66.6c0.3,3.8-1.6,8.4-6.2,9.5c0,0,19,6.6,25.7,1.5C22.1,75.8,14.3,72,9.6,66.6z"/>
<path class="st3" d="M33,57.7c-4.6,5,2.2,13.1-9.6,16.9"/>
<path class="st0" d="M43.6,72.3c-0.6,0.9-1.8,1.2-2.7,0.6c-0.9-0.6-1.2-1.8-0.6-2.7s1.8-1.2,2.7-0.6c0,0,0,0,0,0
	C43.9,70.2,44.2,71.4,43.6,72.3z"/>
<path class="st2" d="M51.6,64.7c0,0-4.4-6.4-11.6-5.6s-19.7-1.3-24.3-5.8c-2.8-2.8-4.5-6.5-4.8-10.4c0,0,1.1,8.5,11.3,9.8
	s13.8,1.6,18.2,3C45.4,57.4,49.2,59.8,51.6,64.7z"/>
<path class="st2" d="M5,49.6c0,0-3.5-1.9-3.7-5.3c0,0,3.2,1.4,4.5,0.7C5.3,46.5,5.1,48.1,5,49.6z"/>
<path class="st4" d="M65.2,28.1c0,0-9.7-11.1-19.9,1.6S29.2,46.9,24.7,47.3s-7.5,0.5-9-1.2c-3.7-4.3-3.8-16.8,4-22.7
	S41.4,7.1,53.1,14S65.2,28.1,65.2,28.1z"/>
<path class="st5" d="M40.7,10.9C37.4,9.1,34.5,5.1,36,0.5c0,0-15.6,12.7-14.8,21C26.2,16.6,33.7,11.9,40.7,10.9z"/>
<path class="st3" d="M35.9,35.5c-1.8-6.5-12.3-5.1-9.3-17"/>
<path class="st0" d="M17.9,36.7c-0.5-1-0.1-2.1,0.9-2.6c1-0.5,2.1-0.1,2.6,0.9c0.5,1,0.1,2.1-0.9,2.6c0,0,0,0,0,0
	C19.5,38,18.4,37.6,17.9,36.7z"/>
<path class="st5" d="M20.2,47.5c0,0,7.8-0.3,10.9-6.9s11.6-16,17.8-17.6c3.8-0.9,7.9-0.4,11.4,1.4c0,0-7.8-3.5-14.4,4.5
	s-8.6,10.8-12.2,13.8C29.6,46.1,25.5,48.1,20.2,47.5z"/>
<path class="st5" d="M57.5,15.9c0,0,3.5-2,6.5-0.4c0,0-2.9,2-2.9,3.5C60,17.8,58.8,16.8,57.5,15.9z"/>
<path class="st6" d="M45.8,78.4c0,0,14.4-3.2,8-18.3s-7.5-22.3-5.7-26.5s3.1-6.8,5.3-7.3C59,25,69.9,30.9,71.4,40.5s4.1,26.9-7.5,34
	S45.8,78.4,45.8,78.4z"/>
<path class="st7" d="M72.6,65.1c3.1-2.2,8.1-2.8,11.3,0.7c0,0-3.7-19.8-11.5-23C74.4,49.6,75,58.3,72.6,65.1z"/>
<path class="st3" d="M53.2,49.2c6.6,1.5,10.3-8.4,19.4-0.1"/>
<path class="st0" d="M60.7,32.7c1.1,0,1.9,0.9,1.9,2c0,1.1-0.9,1.9-2,1.9c-1.1,0-1.9-0.9-1.9-2C58.8,33.5,59.7,32.7,60.7,32.7z"/>
<path class="st7" d="M50.1,29.6c0,0-3.4,7,0.9,12.8s8.6,17.8,7,24c-1.1,3.8-3.4,7.1-6.6,9.3c0,0,6.8-5.2,2.9-14.8
	s-5.4-12.7-6.4-17.3C46.8,38.5,47,34,50.1,29.6z"/>
<path class="st7" d="M60.2,77.5c0,0,0.1,4-2.8,5.9c0,0-0.4-3.5-1.7-4.2C57.3,78.8,58.8,78.2,60.2,77.5z"/>
</svg>
