<?xml version="1.0" encoding="UTF-8"?> <svg xmlns="http://www.w3.org/2000/svg" viewBox="0 0 250.65 108.3"><defs><style>.cls-1{fill:#a2d8db;}.cls-2{fill:#00b4d1;}.cls-3{fill:none;stroke:#fff;stroke-width:0.16px;}.cls-4{fill:#fff;}.cls-5{fill:#ffe237;}.cls-6{fill:#f89e2f;}.cls-7{fill:#f6a0b5;}.cls-8{fill:#f2739d;}</style></defs><g id="Capa_2" data-name="Capa 2"><path d="M5,98.56l-1.24-.48,1.76-3.53.94.38Zm2.47,0-1.24-.48L8,94.55l.93.38Z"></path><path d="M16.4,102.17H12.32l-1.06,2.32H9.71l4.71-10.13L19,104.49H17.39Zm-.59-1.35L14.4,97.58l-1.48,3.24Z"></path><path d="M24.57,98.74v1.84a3.46,3.46,0,0,0-.85-.79,1.66,1.66,0,0,0-.87-.23,1.75,1.75,0,0,0-1.31.55,2.15,2.15,0,0,0,0,2.77,1.67,1.67,0,0,0,1.29.54,1.72,1.72,0,0,0,.88-.22,3.78,3.78,0,0,0,.87-.81v1.83a3.7,3.7,0,0,1-1.69.44,3.22,3.22,0,0,1-2.33-.9,3,3,0,0,1-.94-2.25,3,3,0,0,1,.95-2.27,3.2,3.2,0,0,1,2.33-.93A3.44,3.44,0,0,1,24.57,98.74Z"></path><path d="M27.3,98.48v3.45c0,1,.39,1.49,1.18,1.49s1.18-.5,1.18-1.49V98.48H31V102a3.82,3.82,0,0,1-.18,1.24,2,2,0,0,1-.59.85,2.63,2.63,0,0,1-1.79.61,2.58,2.58,0,0,1-1.78-.61,2.1,2.1,0,0,1-.62-.85,3.53,3.53,0,0,1-.17-1.24V98.48Z"></path><path d="M32.59,96a.91.91,0,0,1,1.54-.63.88.88,0,0,1,.26.64.91.91,0,0,1-1.54.64A.87.87,0,0,1,32.59,96Zm1.59,2.5v6H32.8v-6Z"></path><path d="M40.62,98.74v1.84a3.46,3.46,0,0,0-.85-.79,1.66,1.66,0,0,0-.87-.23,1.75,1.75,0,0,0-1.31.55,2.15,2.15,0,0,0,0,2.77,1.66,1.66,0,0,0,1.28.54,1.73,1.73,0,0,0,.89-.22,3.78,3.78,0,0,0,.87-.81v1.83a3.7,3.7,0,0,1-1.69.44,3.22,3.22,0,0,1-2.33-.9,3.17,3.17,0,0,1,0-4.52,3.2,3.2,0,0,1,2.33-.93A3.44,3.44,0,0,1,40.62,98.74Z"></path><path d="M43.35,98.48v3.45c0,1,.39,1.49,1.18,1.49s1.17-.5,1.17-1.49V98.48h1.39V102a3.82,3.82,0,0,1-.18,1.24,2,2,0,0,1-.6.85,2.58,2.58,0,0,1-1.78.61,2.63,2.63,0,0,1-1.79-.61,2.17,2.17,0,0,1-.61-.85A3.53,3.53,0,0,1,42,102V98.48Z"></path><path d="M50.23,94.07v10.42H48.84V94.07Z"></path><path d="M53.42,99.77v4.72H52V99.77h-.59V98.48H52v-2.2h1.39v2.2H54.5v1.29Z"></path><path d="M56.83,98.48v3.45c0,1,.39,1.49,1.18,1.49s1.18-.5,1.18-1.49V98.48h1.38V102a3.83,3.83,0,0,1-.17,1.24,2.14,2.14,0,0,1-.6.85,2.63,2.63,0,0,1-1.79.61,2.58,2.58,0,0,1-1.78-.61,2.07,2.07,0,0,1-.61-.85,3.28,3.28,0,0,1-.18-1.24V98.48Z"></path><path d="M62.33,98.48h1.38V99a2.85,2.85,0,0,1,.68-.55,1.47,1.47,0,0,1,.72-.16,2.26,2.26,0,0,1,1.15.36l-.64,1.27a1.3,1.3,0,0,0-.77-.28q-1.14,0-1.14,1.71v3.12H62.33Z"></path><path d="M71.48,98.48h1.39v6H71.48v-.63a2.68,2.68,0,0,1-1.84.8,2.64,2.64,0,0,1-2.06-.9,3.35,3.35,0,0,1-.81-2.3,3.24,3.24,0,0,1,.81-2.25,2.59,2.59,0,0,1,2-.9,2.55,2.55,0,0,1,1.88.87Zm-3.29,3a2.08,2.08,0,0,0,.46,1.41,1.5,1.5,0,0,0,1.2.55,1.6,1.6,0,0,0,1.24-.53,2.27,2.27,0,0,0,0-2.79,1.57,1.57,0,0,0-1.23-.54,1.55,1.55,0,0,0-1.2.55A2,2,0,0,0,68.19,101.46Z"></path><path d="M80.42,103.37l-2.71-4.89h1.61l1.84,3.45,1.72-3.45h1.56l-4.78,9.28H78.07Z"></path><path d="M91,100.62v3.87H89.55V95h1.63a7.39,7.39,0,0,1,1.81.17,2.38,2.38,0,0,1,1.08.63,2.69,2.69,0,0,1,.82,2A2.62,2.62,0,0,1,94,99.85a3.5,3.5,0,0,1-2.37.77Zm0-1.33h.53q2,0,2-1.53t-2-1.47H91Z"></path><path d="M101.58,101.81H97.27a1.87,1.87,0,0,0,.48,1.18,1.48,1.48,0,0,0,1.1.43,1.36,1.36,0,0,0,.85-.25,3.27,3.27,0,0,0,.76-.91l1.17.65a4.7,4.7,0,0,1-.57.8,3,3,0,0,1-.65.54,2.83,2.83,0,0,1-.74.31,3.46,3.46,0,0,1-.87.1,2.84,2.84,0,0,1-2.16-.86,3.26,3.26,0,0,1-.82-2.31,3.37,3.37,0,0,1,.79-2.31,2.73,2.73,0,0,1,2.11-.87,2.67,2.67,0,0,1,2.1.85,3.31,3.31,0,0,1,.76,2.32Zm-1.43-1.14a1.33,1.33,0,0,0-1.4-1.11,1.45,1.45,0,0,0-.47.08,1.62,1.62,0,0,0-.41.22,1.46,1.46,0,0,0-.5.81Z"></path><path d="M106.59,99.5l-1.15.61c-.18-.37-.41-.55-.67-.55a.48.48,0,0,0-.33.12.45.45,0,0,0-.14.33c0,.23.27.46.81.68a4.75,4.75,0,0,1,1.48.88,1.49,1.49,0,0,1,.39,1.08,1.88,1.88,0,0,1-.65,1.45,2.29,2.29,0,0,1-3.64-.92l1.18-.54a2.47,2.47,0,0,0,.38.54.85.85,0,0,0,.6.24c.47,0,.71-.21.71-.64,0-.25-.18-.48-.55-.69l-.42-.21-.42-.2a2.74,2.74,0,0,1-.85-.59,1.47,1.47,0,0,1-.32-1,1.74,1.74,0,0,1,.54-1.3,1.89,1.89,0,0,1,1.33-.51A1.83,1.83,0,0,1,106.59,99.5Z"></path><path d="M112.9,98.74v1.84a3.46,3.46,0,0,0-.85-.79,1.67,1.67,0,0,0-.88-.23,1.74,1.74,0,0,0-1.3.55,2.15,2.15,0,0,0,0,2.77,1.66,1.66,0,0,0,1.28.54,1.73,1.73,0,0,0,.89-.22,3.78,3.78,0,0,0,.87-.81v1.83a3.7,3.7,0,0,1-1.69.44,3.22,3.22,0,0,1-2.33-.9,3.17,3.17,0,0,1,0-4.52,3.2,3.2,0,0,1,2.33-.93A3.44,3.44,0,0,1,112.9,98.74Z"></path><path d="M118.67,98.48h1.39v6h-1.39v-.63a2.67,2.67,0,0,1-3.91-.1,3.39,3.39,0,0,1-.8-2.3,3.28,3.28,0,0,1,.8-2.25,2.62,2.62,0,0,1,2-.9,2.55,2.55,0,0,1,1.88.87Zm-3.29,3a2.08,2.08,0,0,0,.46,1.41,1.48,1.48,0,0,0,1.19.55,1.61,1.61,0,0,0,1.25-.53,2.27,2.27,0,0,0,0-2.79,1.57,1.57,0,0,0-1.23-.54,1.55,1.55,0,0,0-1.2.55A2,2,0,0,0,115.38,101.46Z"></path><path d="M130.39,98.74v1.84a3.46,3.46,0,0,0-.85-.79,1.66,1.66,0,0,0-.87-.23,1.75,1.75,0,0,0-1.31.55,2.15,2.15,0,0,0,0,2.77,1.67,1.67,0,0,0,1.29.54,1.72,1.72,0,0,0,.88-.22,3.78,3.78,0,0,0,.87-.81v1.83a3.7,3.7,0,0,1-1.69.44,3.22,3.22,0,0,1-2.33-.9,3,3,0,0,1-.94-2.25,3,3,0,0,1,.95-2.27,3.2,3.2,0,0,1,2.33-.93A3.44,3.44,0,0,1,130.39,98.74Z"></path><path d="M131.45,101.44a3,3,0,0,1,.93-2.21,3.27,3.27,0,0,1,4.55,0,3.21,3.21,0,0,1,0,4.52,3.19,3.19,0,0,1-2.31.91,3,3,0,0,1-2.26-.93A3.08,3.08,0,0,1,131.45,101.44Zm1.42,0a2,2,0,0,0,.48,1.43,1.86,1.86,0,0,0,2.6,0,2,2,0,0,0,.49-1.4,2,2,0,0,0-.49-1.4,1.85,1.85,0,0,0-2.59,0A1.93,1.93,0,0,0,132.87,101.46Z"></path><path d="M139.32,98.48h1.4V99a2.26,2.26,0,0,1,1.64-.72A2.06,2.06,0,0,1,144,99a2.7,2.7,0,0,1,.51,1.83v3.69h-1.39v-3.36a2.26,2.26,0,0,0-.25-1.23,1,1,0,0,0-.88-.34,1.08,1.08,0,0,0-1,.45,3.17,3.17,0,0,0-.28,1.58v2.9h-1.4Z"></path><path d="M153.64,100.43l3,4.06h-1.76l-2.72-3.9h-.26v3.9h-1.44V95h1.69a4.2,4.2,0,0,1,2.72.71,2.61,2.61,0,0,1,.93,2.09,2.71,2.71,0,0,1-.58,1.74A2.65,2.65,0,0,1,153.64,100.43Zm-1.79-1.09h.46q2,0,2-1.56c0-1-.66-1.47-2-1.47h-.51Z"></path><path d="M163.23,101.81h-4.31a1.87,1.87,0,0,0,.48,1.18,1.45,1.45,0,0,0,1.09.43,1.39,1.39,0,0,0,.86-.25,3.65,3.65,0,0,0,.76-.91l1.17.65a4.7,4.7,0,0,1-.57.8,3,3,0,0,1-.65.54,2.76,2.76,0,0,1-.75.31,3.35,3.35,0,0,1-.87.1,2.87,2.87,0,0,1-2.16-.86,3.25,3.25,0,0,1-.81-2.31,3.32,3.32,0,0,1,.79-2.31,3,3,0,0,1,4.21,0,3.31,3.31,0,0,1,.76,2.32Zm-1.43-1.14a1.33,1.33,0,0,0-1.4-1.11,1.4,1.4,0,0,0-.47.08,1.47,1.47,0,0,0-.41.22,1.55,1.55,0,0,0-.51.81Z"></path><path d="M168.23,99.5l-1.14.61c-.19-.37-.41-.55-.68-.55a.47.47,0,0,0-.32.12.45.45,0,0,0-.14.33c0,.23.27.46.8.68a4.83,4.83,0,0,1,1.49.88,1.53,1.53,0,0,1,.38,1.08,1.87,1.87,0,0,1-.64,1.45,2.3,2.3,0,0,1-3.65-.92l1.19-.54a2.55,2.55,0,0,0,.37.54.87.87,0,0,0,.61.24c.47,0,.7-.21.7-.64q0-.37-.54-.69l-.42-.21-.43-.2a2.87,2.87,0,0,1-.85-.59,1.47,1.47,0,0,1-.31-1,1.74,1.74,0,0,1,.54-1.3,1.87,1.87,0,0,1,1.33-.51A1.81,1.81,0,0,1,168.23,99.5Z"></path><path d="M171.26,107.76h-1.39V98.48h1.39v.65a2.57,2.57,0,0,1,1.86-.82,2.61,2.61,0,0,1,2,.92,3.59,3.59,0,0,1,0,4.53,2.61,2.61,0,0,1-2,.9,2.55,2.55,0,0,1-1.88-.85Zm3.29-6.24a2.08,2.08,0,0,0-.46-1.41,1.55,1.55,0,0,0-1.2-.55,1.6,1.6,0,0,0-1.24.53,2.27,2.27,0,0,0,0,2.79,1.54,1.54,0,0,0,1.23.54,1.5,1.5,0,0,0,1.19-.54A2,2,0,0,0,174.55,101.52Z"></path><path d="M177.16,101.44a3,3,0,0,1,.93-2.21,3.27,3.27,0,0,1,4.55,0,3.21,3.21,0,0,1,0,4.52,3.19,3.19,0,0,1-2.31.91,3,3,0,0,1-2.26-.93A3.08,3.08,0,0,1,177.16,101.44Zm1.42,0a2,2,0,0,0,.48,1.43,1.86,1.86,0,0,0,2.6,0,2,2,0,0,0,.49-1.4,2,2,0,0,0-.49-1.4,1.85,1.85,0,0,0-2.59,0A1.93,1.93,0,0,0,178.58,101.46Z"></path><path d="M185,98.48h1.4V99a2.26,2.26,0,0,1,1.64-.72,2.06,2.06,0,0,1,1.63.66,2.7,2.7,0,0,1,.51,1.83v3.69h-1.4v-3.36a2.28,2.28,0,0,0-.24-1.23,1,1,0,0,0-.88-.34,1.07,1.07,0,0,0-1,.45,3.17,3.17,0,0,0-.28,1.58v2.9H185Z"></path><path d="M195.45,99.5l-1.15.61c-.18-.37-.4-.55-.67-.55a.5.5,0,0,0-.33.12.44.44,0,0,0-.13.33c0,.23.27.46.8.68a4.83,4.83,0,0,1,1.49.88,1.53,1.53,0,0,1,.38,1.08,1.87,1.87,0,0,1-.64,1.45,2.3,2.3,0,0,1-3.65-.92l1.19-.54a2.55,2.55,0,0,0,.37.54.85.85,0,0,0,.61.24c.47,0,.7-.21.7-.64q0-.37-.54-.69l-.42-.21-.43-.2a2.87,2.87,0,0,1-.85-.59,1.47,1.47,0,0,1-.31-1,1.76,1.76,0,0,1,.53-1.3,1.9,1.9,0,0,1,1.34-.51A1.82,1.82,0,0,1,195.45,99.5Z"></path><path d="M201.51,98.48h1.4v6h-1.4v-.63a2.66,2.66,0,0,1-3.9-.1,3.35,3.35,0,0,1-.81-2.3,3.24,3.24,0,0,1,.81-2.25,2.6,2.6,0,0,1,2-.9,2.53,2.53,0,0,1,1.88.87Zm-3.29,3a2.13,2.13,0,0,0,.46,1.41,1.52,1.52,0,0,0,1.2.55,1.62,1.62,0,0,0,1.25-.53,2.31,2.31,0,0,0,0-2.79,1.64,1.64,0,0,0-2.44,0A2,2,0,0,0,198.22,101.46Z"></path><path d="M206.05,94.07v5.11a2.53,2.53,0,0,1,1.88-.87,2.6,2.6,0,0,1,2,.91,3.23,3.23,0,0,1,.81,2.24,3.34,3.34,0,0,1-.82,2.3,2.63,2.63,0,0,1-2,.9,2.59,2.59,0,0,1-1.86-.8v.63h-1.39V94.07Zm3.3,7.46a2.09,2.09,0,0,0-.47-1.41,1.51,1.51,0,0,0-1.19-.56,1.6,1.6,0,0,0-1.25.54,2,2,0,0,0-.47,1.38,2,2,0,0,0,.47,1.4,1.64,1.64,0,0,0,2.43,0A2,2,0,0,0,209.35,101.53Z"></path><path d="M212,96a.86.86,0,0,1,.27-.63.85.85,0,0,1,.63-.26.87.87,0,0,1,.65.26.88.88,0,0,1,.26.64.91.91,0,0,1-1.54.64A.88.88,0,0,1,212,96Zm1.6,2.5v6h-1.39v-6Z"></path><path d="M216.77,94.07v10.42h-1.39V94.07Z"></path><path d="M218.31,96a.91.91,0,0,1,1.55-.63.88.88,0,0,1,.26.64.91.91,0,0,1-1.54.64A.88.88,0,0,1,218.31,96Zm1.6,2.5v6h-1.39v-6Z"></path><path d="M226.1,94.07h1.39v10.42H226.1v-.63a2.62,2.62,0,0,1-1.86.8,2.66,2.66,0,0,1-2.05-.9,3.39,3.39,0,0,1-.8-2.3,3.27,3.27,0,0,1,.8-2.24,2.59,2.59,0,0,1,3.91,0Zm-3.29,7.39a2.08,2.08,0,0,0,.46,1.41,1.48,1.48,0,0,0,1.19.55,1.61,1.61,0,0,0,1.25-.53,2.27,2.27,0,0,0,0-2.79,1.57,1.57,0,0,0-1.23-.54,1.55,1.55,0,0,0-1.2.55A2,2,0,0,0,222.81,101.46Z"></path><path d="M233.67,98.48h1.4v6h-1.4v-.63a2.66,2.66,0,0,1-3.9-.1,3.35,3.35,0,0,1-.81-2.3,3.24,3.24,0,0,1,.81-2.25,2.6,2.6,0,0,1,2-.9,2.53,2.53,0,0,1,1.88.87Zm-3.29,3a2.08,2.08,0,0,0,.46,1.41,1.52,1.52,0,0,0,1.2.55,1.59,1.59,0,0,0,1.24-.53,2.27,2.27,0,0,0,0-2.79,1.63,1.63,0,0,0-2.43,0A2,2,0,0,0,230.38,101.46Z"></path><path d="M241.25,94.07h1.39v10.42h-1.39v-.63a2.62,2.62,0,0,1-1.86.8,2.66,2.66,0,0,1-2-.9,3.35,3.35,0,0,1-.81-2.3,3.23,3.23,0,0,1,.81-2.24,2.59,2.59,0,0,1,3.91,0Zm-3.3,7.39a2.09,2.09,0,0,0,.47,1.41,1.48,1.48,0,0,0,1.19.55,1.61,1.61,0,0,0,1.25-.53,2.31,2.31,0,0,0,0-2.79,1.58,1.58,0,0,0-1.24-.54,1.54,1.54,0,0,0-1.19.55A2,2,0,0,0,238,101.46Z"></path><path d="M245.69,94.55l1.24.48-1.76,3.53-.94-.39Zm2.47,0,1.23.48-1.75,3.53-.94-.39Z"></path><path d="M104.52,58.43l-.94,2.23h-1l3.62-8.22,3.53,8.22h-1l-.93-2.23Zm1.7-4-1.34,3.14h2.65Z"></path><path d="M111.47,57.49a2.94,2.94,0,0,0,.34,1.75,2.06,2.06,0,0,0,1.59.74,2.11,2.11,0,0,0,1.54-.69,2.74,2.74,0,0,0,.38-1.8V52.81h.88v4.92a2.76,2.76,0,0,1-.69,2.17,2.91,2.91,0,0,1-2.11.9,2.94,2.94,0,0,1-2-.81,2.74,2.74,0,0,1-.77-2.26V52.81h.87Z"></path><polygon points="119.82 60.66 118.95 60.66 118.95 53.62 117.05 53.62 117.05 52.81 121.74 52.81 121.74 53.62 119.82 53.62 119.82 60.66"></polygon><path d="M130.41,56.75a4.09,4.09,0,1,1-4.09-4.07,4.06,4.06,0,0,1,4.09,4.07m-7.3,0a3.22,3.22,0,1,0,3.21-3.25,3.24,3.24,0,0,0-3.21,3.25"></path><path d="M132.47,60.66h-.88V52.81h1.14c1.49,0,2.87.4,2.87,2.17a2,2,0,0,1-2,2.16l2.5,3.52h-1.07l-2.37-3.44h-.22Zm0-4.22h.27c1,0,2-.18,2-1.4s-.95-1.41-2-1.41h-.26Z"></path><rect x="137.26" y="52.81" width="0.87" height="7.85"></rect><path d="M139.72,52.81h1.48a4.3,4.3,0,0,1,3.06.95,4,4,0,0,1,0,5.91,4.15,4.15,0,0,1-3.1,1h-1.46Zm1.51,7A3.29,3.29,0,0,0,143.7,59a3.11,3.11,0,0,0,1-2.3,3.07,3.07,0,0,0-1-2.35,3.34,3.34,0,0,0-2.43-.77h-.64v6.23Z"></path><path d="M148,58.43,147,60.66h-1l3.62-8.22,3.53,8.22h-1l-.92-2.23Zm1.69-4-1.34,3.14H151Z"></path><path d="M154,52.81h1.48a4.3,4.3,0,0,1,3.06.95,4,4,0,0,1,0,5.91,4.14,4.14,0,0,1-3.1,1H154Zm1.51,7A3.32,3.32,0,0,0,158,59a3.15,3.15,0,0,0,1-2.3,3.1,3.1,0,0,0-1-2.35,3.38,3.38,0,0,0-2.44-.77h-.63v6.23Z"></path><polygon points="164.35 52.48 170.47 58.89 170.47 52.81 171.34 52.81 171.34 61.02 165.22 54.61 165.22 60.66 164.35 60.66 164.35 52.48"></polygon><path d="M174.15,58.43l-1,2.23h-1l3.63-8.22,3.52,8.22h-1l-.92-2.23Zm1.69-4-1.34,3.14h2.65Z"></path><path d="M186.23,54.53a3.35,3.35,0,0,0-2.4-1,3.25,3.25,0,0,0,0,6.49,3.43,3.43,0,0,0,2.38-1V60a4.11,4.11,0,0,1-2.35.76,4.06,4.06,0,1,1,0-8.11,3.81,3.81,0,0,1,2.35.77Z"></path><rect x="187.72" y="52.81" width="0.88" height="7.85"></rect><path d="M198,56.75a4.09,4.09,0,1,1-4.09-4.07A4.06,4.06,0,0,1,198,56.75m-7.3,0a3.21,3.21,0,1,0,3.21-3.25,3.24,3.24,0,0,0-3.21,3.25"></path><polygon points="199.2 52.48 205.32 58.89 205.32 52.81 206.2 52.81 206.2 61.02 200.08 54.61 200.08 60.66 199.2 60.66 199.2 52.48"></polygon><path d="M209,58.43l-.95,2.23h-1l3.62-8.22,3.53,8.22h-1l-.93-2.23Zm1.7-4-1.34,3.14H212Z"></path><polygon points="215.97 59.85 218.14 59.85 218.14 60.66 215.09 60.66 215.09 52.81 215.97 52.81 215.97 59.85"></polygon><path d="M97.86,65.29h1.48a4.3,4.3,0,0,1,3.06.95,3.81,3.81,0,0,1,1.3,3,3.77,3.77,0,0,1-1.28,2.92,4.15,4.15,0,0,1-3.1,1H97.86Zm1.51,7a3.32,3.32,0,0,0,2.48-.81,3.14,3.14,0,0,0,1-2.3,3.07,3.07,0,0,0-1-2.35,3.33,3.33,0,0,0-2.43-.76h-.64v6.22Z"></path><polygon points="104.91 65.29 108.98 65.29 108.98 66.11 105.78 66.11 105.78 68.44 108.89 68.44 108.89 69.25 105.78 69.25 105.78 72.33 108.98 72.33 108.98 73.14 104.91 73.14 104.91 65.29"></polygon><path d="M114.85,70.91l-1,2.23h-1l3.62-8.22,3.53,8.22h-1l-.92-2.23Zm1.69-4L115.2,70.1h2.65Z"></path><path d="M126.92,67a3.36,3.36,0,0,0-2.39-1,3.25,3.25,0,0,0,0,6.49,3.39,3.39,0,0,0,2.37-1v1.09a4,4,0,0,1-2.33.77,4.06,4.06,0,1,1,0-8.12,3.75,3.75,0,0,1,2.33.77Z"></path><path d="M129.25,70a2.88,2.88,0,0,0,.35,1.75,2,2,0,0,0,1.58.74,2.11,2.11,0,0,0,1.54-.69,2.74,2.74,0,0,0,.38-1.8V65.29H134v4.92a2.76,2.76,0,0,1-.69,2.17,2.86,2.86,0,0,1-2.11.9,2.94,2.94,0,0,1-2-.8,2.77,2.77,0,0,1-.77-2.27V65.29h.87Z"></path><rect x="135.54" y="65.29" width="0.87" height="7.85"></rect><path d="M144,67a3.37,3.37,0,0,0-2.39-1,3.25,3.25,0,0,0,0,6.49,3.4,3.4,0,0,0,2.37-1v1.09a4,4,0,0,1-2.34.77,4.06,4.06,0,1,1,0-8.12,3.8,3.8,0,0,1,2.34.77Z"></path><path d="M146.32,70a2.94,2.94,0,0,0,.34,1.75,2,2,0,0,0,1.59.74,2.07,2.07,0,0,0,1.53-.69,2.69,2.69,0,0,0,.39-1.8V65.29H151v4.92a2.76,2.76,0,0,1-.68,2.17,2.87,2.87,0,0,1-2.11.9,2.94,2.94,0,0,1-2-.8,2.78,2.78,0,0,1-.78-2.27V65.29h.88Z"></path><polygon points="153.47 72.33 155.63 72.33 155.63 73.14 152.59 73.14 152.59 65.29 153.47 65.29 153.47 72.33"></polygon><polygon points="157.74 73.14 156.87 73.14 156.87 66.11 154.97 66.11 154.97 65.29 159.66 65.29 159.66 66.11 157.74 66.11 157.74 73.14"></polygon><path d="M161.4,70a2.94,2.94,0,0,0,.34,1.75,2,2,0,0,0,1.59.74,2.07,2.07,0,0,0,1.53-.69,2.69,2.69,0,0,0,.39-1.8V65.29h.87v4.92a2.76,2.76,0,0,1-.68,2.17,2.86,2.86,0,0,1-2.11.9,2.94,2.94,0,0,1-2-.8,2.77,2.77,0,0,1-.77-2.27V65.29h.87Z"></path><path d="M168.55,73.14h-.88V65.29h1.14c1.48,0,2.87.4,2.87,2.17a2,2,0,0,1-2,2.16l2.5,3.52h-1.07l-2.37-3.44h-.22Zm0-4.21h.27c1,0,2-.19,2-1.41s-.94-1.41-2-1.41h-.26Z"></path><path d="M174.49,70.91l-1,2.23h-1l3.62-8.22,3.53,8.22h-1l-.92-2.23Zm1.69-4-1.34,3.14h2.65Z"></path><polygon points="183.08 65.29 184.09 65.29 186.09 68.79 188.08 65.29 189.09 65.29 186.52 69.77 186.52 73.14 185.65 73.14 185.65 69.77 183.08 65.29"></polygon><path d="M194,73.14h-.88V65.29h1.3a3.34,3.34,0,0,1,1.94.42,2.18,2.18,0,0,1,.89,1.79,2.22,2.22,0,0,1-.75,1.69,2.87,2.87,0,0,1-1.86.52H194Zm0-4.24h.58c1,0,1.79-.3,1.79-1.42,0-1.28-1-1.37-2.05-1.37H194Z"></path><polygon points="198.39 65.29 202.46 65.29 202.46 66.11 199.26 66.11 199.26 68.44 202.36 68.44 202.36 69.25 199.26 69.25 199.26 72.33 202.46 72.33 202.46 73.14 198.39 73.14 198.39 65.29"></polygon><path d="M207.5,66.82a1.45,1.45,0,0,0-1.35-.85,1.24,1.24,0,0,0-1.3,1.22c0,.68.69,1,1.22,1.23l.52.23c1,.44,1.89.95,1.89,2.2a2.48,2.48,0,0,1-4.91.4l.85-.24A1.62,1.62,0,0,0,206,72.47a1.57,1.57,0,0,0,1.61-1.53c0-.92-.71-1.23-1.44-1.56l-.48-.21c-.92-.42-1.71-.89-1.71-2a2.06,2.06,0,0,1,2.2-2,2.26,2.26,0,0,1,2,1.22Z"></path><path d="M215.74,67a3.37,3.37,0,0,0-2.39-1,3.25,3.25,0,0,0,0,6.49,3.4,3.4,0,0,0,2.37-1v1.09a4.05,4.05,0,0,1-6.43-3.26,4.1,4.1,0,0,1,4.09-4.09,3.8,3.8,0,0,1,2.34.77Z"></path><path d="M218.39,70.91l-.95,2.23h-1l3.63-8.22,3.52,8.22h-1l-.93-2.23Zm1.7-4-1.35,3.14h2.65Z"></path><path d="M102,34.53,98.67,42h-4l14.14-30.89L123,42h-4l-3.38-7.43Zm6.8-15.36-5.26,12h10.53Z"></path><path d="M128.65,12.33V29.82c0,4.83,1.45,9.31,7.15,9.31S143,34.65,143,29.82V12.33h3.69V31.08c0,6.52-4,11.51-10.84,11.51S125,37.6,125,31.08V12.33Z"></path><polygon points="151.4 10.92 173.64 34.22 173.64 12.33 177.33 12.33 177.33 43.18 155.09 19.88 155.09 41.96 151.4 41.96 151.4 10.92"></polygon><path d="M186.8,34.53,183.42,42h-4L193.6,11.07,207.74,42h-4l-3.38-7.43Zm6.8-15.36-5.27,12h10.53Z"></path><path d="M213.91,42h-3.69V12.33h4.24c9.12,0,11.95,3.15,11.95,8.57,0,6.25-4.76,8.64-10.38,8.64h-2.12Zm0-15.72h1.18c3.77,0,7.86-.71,7.86-5.42s-4.4-5.19-8.06-5.19h-1Z"></path><path class="cls-1" d="M11.38,36.67S7,50.8,23.27,52.74s23,4.58,25.81,8.16S53.45,67,52.8,69.13c-1.68,5.5-12.22,12.08-21.32,8.64S6.06,68,5.73,54.38,11.38,36.67,11.38,36.67Z"></path><path class="cls-2" d="M9.61,66.55c.32,3.77-1.6,8.37-6.22,9.51,0,0,19,6.58,25.66,1.48C22.15,75.85,14.27,72,9.61,66.55Z"></path><path class="cls-3" d="M33.05,57.67c-4.6,5,2.18,13.08-9.56,16.89"></path><path class="cls-4" d="M43.59,72.33A1.93,1.93,0,1,1,43,69.68,1.92,1.92,0,0,1,43.59,72.33Z"></path><path class="cls-2" d="M51.56,64.66S47.18,58.25,40,59.1s-19.72-1.34-24.29-5.82a17,17,0,0,1-4.82-10.4S12,51.35,22.22,52.72s13.76,1.61,18.2,3C45.44,57.39,49.25,59.8,51.56,64.66Z"></path><path class="cls-2" d="M5,49.63s-3.53-1.9-3.72-5.31c0,0,3.24,1.43,4.48.65A22.89,22.89,0,0,0,5,49.63Z"></path><path class="cls-5" d="M65.18,28.14S55.49,17,45.25,29.74,29.19,46.89,24.69,47.34s-7.47.51-9-1.18C12,41.83,11.93,29.4,19.66,23.5S41.41,7.08,53.13,14,65.18,28.14,65.18,28.14Z"></path><path class="cls-6" d="M40.74,10.85C37.37,9.13,34.48,5.07,36,.54c0,0-15.64,12.69-14.81,21C26.22,16.58,33.67,11.94,40.74,10.85Z"></path><path class="cls-3" d="M35.9,35.45c-1.81-6.54-12.26-5.06-9.29-17"></path><path class="cls-4" d="M17.88,36.65a1.93,1.93,0,1,1,2.58.87A1.93,1.93,0,0,1,17.88,36.65Z"></path><path class="cls-6" d="M20.19,47.47s7.75-.33,10.85-6.92S42.6,24.51,48.81,23a17,17,0,0,1,11.37,1.4s-7.77-3.53-14.36,4.47S37.19,39.7,33.62,42.71C29.59,46.11,25.53,48.08,20.19,47.47Z"></path><path class="cls-6" d="M57.55,15.85s3.48-2,6.48-.35c0,0-2.92,2-2.92,3.45A22.83,22.83,0,0,0,57.55,15.85Z"></path><path class="cls-7" d="M45.76,78.39s14.43-3.23,8.05-18.3-7.47-22.27-5.74-26.46,3.1-6.81,5.3-7.31C59,25,69.92,30.92,71.45,40.52s4.13,26.94-7.52,34S45.76,78.39,45.76,78.39Z"></path><path class="cls-8" d="M72.57,65.08c3.12-2.15,8.07-2.77,11.35.68,0,0-3.74-19.79-11.46-23C74.42,49.58,75,58.34,72.57,65.08Z"></path><path class="cls-3" d="M53.22,49.15c6.61,1.51,10.27-8.39,19.41-.09"></path><path class="cls-4" d="M60.72,32.71a1.93,1.93,0,1,1-2,1.87A1.94,1.94,0,0,1,60.72,32.71Z"></path><path class="cls-8" d="M50.1,29.61s-3.39,7,.94,12.84,8.63,17.78,7,24a17,17,0,0,1-6.63,9.35S58.22,70.6,54.31,61s-5.44-12.74-6.4-17.31C46.83,38.54,47,34,50.1,29.61Z"></path><path class="cls-8" d="M60.19,77.51s.11,4-2.76,5.87c0,0-.37-3.52-1.66-4.21A23.11,23.11,0,0,0,60.19,77.51Z"></path></g></svg> 